<svg width="20" height="20" viewBox="0 0 20 20" fill="none" xmlns="http://www.w3.org/2000/svg">
<path d="M10 19H13.6716C14.202 19 14.7107 18.7893 15.0858 18.4142L18.4142 15.0858C18.7893 14.7107 19 14.202 19 13.6716V10V6.32843C19 5.79799 18.7893 5.28929 18.4142 4.91421L15.0858 1.58579C14.7107 1.21071 14.202 1 13.6716 1H10H6.32843C5.79799 1 5.28929 1.21071 4.91421 1.58579L1.58579 4.91421C1.21071 5.28929 1 5.79799 1 6.32843V10V13.6716C1 14.202 1.21071 14.7107 1.58579 15.0858L4.91421 18.4142C5.28929 18.7893 5.79799 19 6.32843 19H10Z" stroke="#82DBF7" stroke-width="1.5" stroke-linecap="round"/>
</svg>
